<mxfile host="www.draw.io" modified="2019-12-16T10:38:16.699Z" agent="Mozilla/5.0 (Macintosh; Intel Mac OS X 10_14_0) AppleWebKit/537.36 (KHTML, like Gecko) Chrome/78.0.3904.108 Safari/537.36" etag="Ykw4noLZnhp5FJfmLXWl" version="12.4.2" type="github" pages="1">
  <diagram id="AN1hfcnOU9CClWuYjF-V" name="Page-1">
    <mxGraphModel dx="560" dy="931" grid="1" gridSize="10" guides="1" tooltips="1" connect="1" arrows="1" fold="1" page="1" pageScale="1" pageWidth="827" pageHeight="1169" math="0" shadow="0">
      <root>
        <mxCell id="0"/>
        <mxCell id="1" parent="0"/>
        <mxCell id="-UHD6luWmecXEYDS3Q5Q-1" value="" style="ellipse;whiteSpace=wrap;html=1;" vertex="1" parent="1">
          <mxGeometry x="90" y="200" width="120" height="80" as="geometry"/>
        </mxCell>
        <mxCell id="-UHD6luWmecXEYDS3Q5Q-2" value="" style="shape=parallelogram;perimeter=parallelogramPerimeter;whiteSpace=wrap;html=1;" vertex="1" parent="1">
          <mxGeometry x="150" y="430" width="120" height="60" as="geometry"/>
        </mxCell>
      </root>
    </mxGraphModel>
  </diagram>
</mxfile>
